<svg width="108" height="108" xmlns="http://www.w3.org/2000/svg" xmlns:xlink="http://www.w3.org/1999/xlink" xml:space="preserve" overflow="hidden"><defs><clipPath id="clip0"><rect x="1072" y="442" width="108" height="108"/></clipPath><clipPath id="clip1"><rect x="1072" y="443" width="107" height="107"/></clipPath><clipPath id="clip2"><rect x="1072" y="443" width="107" height="107"/></clipPath><clipPath id="clip3"><rect x="1072" y="443" width="107" height="107"/></clipPath></defs><g clip-path="url(#clip0)" transform="translate(-1072 -442)"><g clip-path="url(#clip1)"><g clip-path="url(#clip2)"><g clip-path="url(#clip3)"><path d="M1139.88 531.275C1139.88 521.124 1148.82 511.971 1148.91 511.883 1161.84 498.955 1161.83 477.995 1148.91 465.067 1135.98 452.14 1115.02 452.14 1102.09 465.068 1089.17 477.994 1089.16 498.951 1102.09 511.879 1102.18 511.971 1111.12 521.124 1111.12 531.275L1111.12 532.278 1139.88 532.278ZM1113.1 530.272C1112.57 519.72 1103.9 510.851 1103.51 510.464 1091.37 498.32 1091.37 478.63 1103.51 466.486 1115.66 454.342 1135.34 454.342 1147.49 466.486 1159.63 478.63 1159.63 498.32 1147.49 510.464 1147.49 510.465 1147.49 510.466 1147.49 510.467 1147.1 510.851 1138.43 519.72 1137.9 530.272Z" fill="#000000" fill-rule="nonzero" fill-opacity="1"/><path d="M1112.12 535.622 1138.88 535.622 1138.88 537.628 1112.12 537.628Z" fill="#000000" fill-rule="nonzero" fill-opacity="1"/><path d="M1125.52 471.422C1117.5 471.431 1111.01 477.926 1111 485.941L1113.01 485.941C1113.01 479.031 1118.61 473.429 1125.52 473.429 1132.43 473.429 1138.03 479.031 1138.03 485.941 1138.03 491.015 1134.28 493.777 1130.66 496.449 1127.5 498.779 1124.52 500.981 1124.52 504.518L1124.5 507.193 1126.5 507.207 1126.52 504.525C1126.52 501.994 1128.99 500.173 1131.85 498.064 1135.69 495.235 1140.04 492.028 1140.04 485.941 1140.03 477.926 1133.53 471.431 1125.52 471.422Z" fill="#000000" fill-rule="nonzero" fill-opacity="1"/><path d="M1125.52 514.222C1123.49 514.222 1121.84 515.869 1121.84 517.9 1121.84 519.931 1123.49 521.578 1125.52 521.578 1127.55 521.578 1129.2 519.931 1129.2 517.9 1129.19 515.87 1127.55 514.224 1125.52 514.222ZM1125.52 519.572C1124.59 519.572 1123.85 518.823 1123.85 517.9 1123.85 516.977 1124.59 516.228 1125.52 516.228 1126.44 516.228 1127.19 516.977 1127.19 517.9 1127.19 518.823 1126.44 519.571 1125.52 519.572Z" fill="#000000" fill-rule="nonzero" fill-opacity="1"/></g></g></g></g></svg>